<?xml version="1.0" encoding="UTF-8" standalone="no"?>
<svg width="1018px" height="252px" viewBox="0 0 1018 252" version="1.1" xmlns="http://www.w3.org/2000/svg" xmlns:xlink="http://www.w3.org/1999/xlink" xmlns:sketch="http://www.bohemiancoding.com/sketch/ns">
    <!-- Generator: Sketch 3.4.1 (15681) - http://www.bohemiancoding.com/sketch -->
    <title>LogoCC</title>
    <desc>Created with Sketch.</desc>
    <defs></defs>
    <g id="Page-1" stroke="none" stroke-width="1" fill="none" fill-rule="evenodd" sketch:type="MSPage">
        <g id="Desktop-HD" sketch:type="MSArtboardGroup" transform="translate(-211.000000, -112.000000)">
            <g id="LogoCC" sketch:type="MSLayerGroup" transform="translate(211.000000, 112.000000)">
                <path d="M428.100079,246.927249 C421.24894,245.803552 416.54247,242.349635 413.54879,236.248627 C409.285121,227.559388 408.808412,215.87393 412.158264,202.164197 C415.456712,188.664893 422.378025,178.351537 431.961588,172.655551 C439.813266,167.988907 449.798271,167.025672 456.676466,170.271381 C463.043929,173.27605 466.658347,178.816946 467.935857,187.53198 C468.252498,189.692012 468.263237,190.159853 468.002205,190.41863 C467.704172,190.714107 460.917329,192.598482 460.142588,192.600867 C459.855896,192.600867 459.702402,192.18575 459.480862,190.807536 C458.33516,183.679594 455.397258,179.307293 450.545023,177.508798 C449.358864,177.06916 448.693596,176.99965 445.587619,176.990851 C441.401392,176.979042 439.695892,177.353824 436.21407,179.050924 C429.022359,182.556267 423.46359,190.807189 420.610629,202.211224 C418.526854,210.54064 417.930627,220.343574 419.178073,225.764945 C420.600167,231.945327 424.006515,236.180321 428.95112,237.915349 C431.167559,238.693092 435.351703,238.907921 437.86437,238.373025 C445.312985,236.787298 451.620967,230.593232 455.203839,221.346659 C455.566954,220.409565 455.987398,219.595492 456.138185,219.537605 C456.38729,219.441976 459.752,220.331464 462.559853,221.235215 C463.59548,221.56855 463.667297,221.64033 463.53204,222.207018 C463.22225,223.505093 459.685668,230.350084 458.071474,232.775863 C456.00434,235.88232 451.661447,240.351964 448.953371,242.160114 C445.560216,244.425662 442.174258,245.878318 438.412804,246.682296 C436.065343,247.184035 430.475236,247.316827 428.100071,246.927249 L428.100079,246.927249 Z M347.343829,245.865722 C347.185081,245.608775 384.147299,170.122357 384.560638,169.859343 C384.710522,169.763992 386.684036,169.684363 388.946255,169.682418 C392.996624,169.678559 393.062609,169.687049 393.269845,170.199856 C393.548182,170.888917 395.626518,183.595056 400.683628,215.525174 C402.972927,229.979493 404.984259,242.645969 405.153261,243.672926 C405.322262,244.69986 405.419354,245.663674 405.369014,245.814736 C405.251926,246.166178 396.390913,246.208991 396.174789,245.859115 C396.015022,245.600477 394.213935,233.364934 393.499,227.681359 C393.242697,225.643746 392.982644,223.742166 392.921103,223.455627 L392.809199,222.934646 L379.765269,222.934646 C369.611054,222.934646 366.668732,222.998785 366.483899,223.22408 C366.353317,223.383268 363.933136,228.46283 361.105704,234.511994 C358.278271,240.561159 355.860011,245.64072 355.731767,245.799909 C355.444381,246.156607 347.561735,246.21843 347.343829,245.865668 L347.343829,245.865722 Z M391.660789,214.1907 C391.660789,213.966145 390.938447,208.469799 390.055598,201.976597 C388.60485,191.306867 388.054148,186.659094 387.547838,180.811885 C387.45475,179.736905 387.264062,178.824379 387.122695,178.777537 C386.980749,178.730533 386.584376,179.497208 386.234592,180.495384 C384.799513,184.590639 382.72252,189.20016 376.825655,201.376937 C373.409216,208.431756 370.668853,214.292789 370.735972,214.401454 C370.803092,214.510096 375.538632,214.598986 381.25939,214.598986 C391.041001,214.598986 391.660789,214.574674 391.660789,214.1907 L391.660789,214.1907 Z M465.11303,245.849213 C464.879363,245.615443 465.7212,240.206529 467.214348,232.348242 C467.945971,228.497686 471.482924,208.466002 472.433355,202.790091 C472.827854,200.434101 473.765348,195.120098 474.516667,190.981196 C475.267986,186.842294 476.416211,180.435876 477.068286,176.744693 C477.720361,173.053534 478.376787,169.955296 478.526972,169.859714 C478.94987,169.590656 523.068318,169.63634 523.234913,169.906023 C523.371859,170.127683 522.060511,178.135249 521.824784,178.516815 C521.759439,178.622632 513.434092,178.709207 503.32406,178.709207 L484.942206,178.709207 L484.828659,179.230188 C484.486096,180.801998 480.998812,201.158658 480.998812,201.586556 L480.998812,202.09545 L498.017335,202.09545 C512.796482,202.09545 515.053078,202.140371 515.166741,202.436681 C515.29885,202.781107 514.006781,210.475945 513.745942,210.898171 C513.655863,211.043976 507.458998,211.125782 496.505671,211.125782 C486.679345,211.125782 479.351497,211.214025 479.277851,211.333248 C479.037264,211.722664 474.738045,236.621187 474.87351,236.840462 C474.956391,236.974643 482.281854,237.059042 493.844046,237.059042 C505.907641,237.059042 512.729988,237.140708 512.819858,237.286189 C512.956805,237.507849 511.645457,245.515415 511.40973,245.896981 C511.228693,246.190027 465.406434,246.142745 465.11303,245.849205 L465.11303,245.849213 Z M197.788391,180.896817 C197.595736,180.394522 225.064771,48.3465303 225.441472,47.9641073 C225.689304,47.7125084 227.971937,47.6542975 237.476646,47.6571686 C243.927777,47.6594841 249.334394,47.7423085 249.491337,47.8420589 C249.711118,47.9817049 249.592386,48.9519793 248.974681,52.0642483 C248.086624,56.538546 248.044571,56.9155045 248.433307,56.9155045 C248.581177,56.9155045 249.492495,56.3048457 250.458456,55.5584772 C254.979145,52.065545 260.309015,49.0377674 264.502648,47.580295 C273.660073,44.397682 284.186823,44.72847 292.043362,48.4457018 C294.936803,49.8146769 297.42563,51.5472965 299.830929,53.8670266 C305.970141,59.7878446 309.172817,67.0360749 310.69279,78.4493721 C311.087567,81.4135437 311.09046,92.4012806 310.697419,95.6996208 C309.420811,106.411238 306.140879,115.86456 300.970151,123.735235 C291.997906,137.392523 281.04481,144.916595 267.775729,146.537702 C264.504592,146.937352 258.184135,146.709394 255.038511,146.078289 C247.176927,144.501084 240.698439,140.45839 235.871895,134.118009 C234.958633,132.918294 234.130497,131.936721 234.031554,131.936721 C233.932611,131.936721 233.791059,132.22326 233.716973,132.573475 C233.642911,132.923689 231.351807,143.912538 228.625701,156.993158 C225.899596,170.073779 223.602405,180.884128 223.52082,181.016156 C223.421368,181.177174 219.182834,181.256224 210.64941,181.256224 C199.363425,181.256224 197.910734,181.215626 197.788438,180.896817 L197.788391,180.896817 Z M263.39775,126.609265 C270.125227,124.995753 275.723527,119.946825 279.570663,112.023358 C281.8021,107.427567 283.797046,101.254294 284.88322,95.5838473 C285.703857,91.2996034 285.908779,84.270949 285.316371,80.7265438 C284.491753,75.7928106 282.610887,71.8866365 279.64866,68.9559466 C276.931233,66.2674316 274.230471,64.8667114 270.513916,64.2183105 C267.948758,63.7707997 266.574249,63.7698272 264.029596,64.2136795 C254.07734,65.9499576 246.889101,74.634358 242.951192,89.6793072 C241.673659,94.5601551 241.193941,97.6435734 241.05431,101.87125 C240.753338,110.983781 242.788995,117.249118 247.614799,122.063002 C250.29862,124.740171 252.914789,126.153604 256.612249,126.923984 C257.970673,127.207003 261.60886,127.038229 263.39775,126.609172 L263.39775,126.609265 Z M35.4659251,146.405975 C25.6464034,145.191881 18.620724,142.079334 13.4737661,136.662872 C8.6106662,131.545105 6.07167033,125.436572 5.37312799,117.173657 C5.1048223,113.999935 5.39125019,107.518403 5.81870949,107.090759 C6.01731995,106.892045 28.3007225,104.400646 29.9849988,104.388837 L30.8688203,104.382663 L30.6793358,106.292925 C30.4000966,109.107888 30.4659198,113.116985 30.8152407,114.570729 C31.6064839,117.863582 33.8795194,120.827059 36.6503714,122.178297 C39.282572,123.461901 40.6731978,123.708568 45.3023655,123.712921 C50.2743659,123.717552 52.0668585,123.378127 55.1051613,121.856493 C59.9741145,119.418026 61.7450517,116.165578 64.8373586,103.982735 C66.36966,97.9459119 66.3111582,98.2190447 75.9598807,52.0530491 C80.5512071,30.085031 84.4081409,11.8767567 84.530838,11.5902173 L84.7539284,11.0692367 L97.842836,11.0692367 C108.988703,11.0692367 110.950622,11.118479 111.058938,11.4008582 C111.128912,11.5832709 110.404078,15.6729692 109.448223,20.4890765 C106.593912,34.8706668 93.8782491,95.6300718 92.861462,99.745796 C89.7496983,112.341511 85.9028941,122.514249 81.7066841,129.244208 C75.6877469,138.89747 67.2131482,144.072614 54.102477,146.101128 C50.0858303,146.722576 39.4356116,146.896815 35.4659251,146.406005 L35.4659251,146.405975 Z M127.002682,146.614205 C121.413778,145.799391 117.473393,143.848399 113.902279,140.12788 C109.603654,135.649391 107.447183,129.625095 107.447522,122.095975 C107.447669,118.748384 107.895485,115.305976 109.168876,108.863737 C110.812557,100.548145 122.727379,48.0242169 123.010915,47.8440733 C123.466455,47.554686 148.272329,47.6071082 148.563179,47.898101 C148.734681,48.0696773 148.713735,48.5356192 148.492897,49.461043 C148.319861,50.1862018 147.497002,53.9502292 146.664314,57.8255612 C145.831635,61.7008933 142.873049,74.9859003 140.089692,87.347799 C134.727659,111.162566 134.183245,113.69532 133.849084,116.380987 C133.260394,121.112278 135.358271,125.278804 139.313994,127.234681 C140.862049,128.000106 141.297267,128.10759 143.183001,128.19009 C145.833309,128.306072 147.545806,127.905195 150.409437,126.498524 C153.061588,125.195725 156.085425,122.870715 158.536852,120.249418 C163.399532,115.0498 166.338545,108.915982 168.968493,98.4781921 C169.481901,96.4405788 172.264387,84.3017293 175.151787,71.5029709 C178.039188,58.7042125 180.507116,48.1022559 180.636031,47.9430674 C180.934689,47.574352 206.160089,47.5154002 206.387114,47.8828652 C206.515613,48.090887 205.803895,51.4990036 202.663385,65.7142737 C202.086623,68.3249657 197.845589,87.0802697 193.238872,107.392727 L184.863016,144.324468 L172.65479,144.384361 C160.513081,144.443946 160.446564,144.441708 160.446564,143.973319 C160.446564,143.714287 161.019392,141.035567 161.719515,138.020617 C162.419638,135.00569 162.992466,132.5076 162.992466,132.469348 C162.992466,132.126358 162.226581,132.630227 160.99259,133.785067 C154.057252,140.275583 146.440244,144.437409 138.459226,146.096998 C136.329355,146.539878 128.818728,146.878909 127.002666,146.614158 L127.002682,146.614205 Z M379.394169,146.394096 C375.736217,145.878256 372.83493,145.036675 370.136343,143.708614 C368.021786,142.667973 367.434007,142.23938 365.610701,140.408468 C363.838406,138.628798 363.350611,137.964999 362.447834,136.104566 C360.993383,133.10719 360.622422,131.508567 360.486679,127.653102 C360.30967,122.625893 361.164098,117.680559 366.307352,93.9630186 C370.626776,74.0445384 371.949604,67.7095756 371.831381,67.5087781 C371.77514,67.4132649 368.923221,67.3351178 365.493775,67.3351178 L359.258397,67.3351178 L359.258397,66.7509249 C359.258397,66.4296303 359.97854,62.7567166 360.858728,58.5888944 C361.738893,54.4210954 362.583392,50.3858801 362.735359,49.6217752 C362.887349,48.8576702 363.117314,48.1022482 363.246391,47.9430597 C363.423586,47.7245488 365.001976,47.653626 369.688125,47.653626 C373.101995,47.653626 375.945467,47.5721909 376.006962,47.4726489 C376.068449,47.3731068 376.808921,44.0127815 377.652425,40.0052593 C378.495952,35.9977371 379.258959,32.6523466 379.347996,32.5710736 C379.639895,32.3046556 407.760542,15.2614562 408.163466,15.1067828 C408.402781,15.014905 408.556322,15.0681145 408.556322,15.243025 C408.556322,15.4009169 407.150289,22.5567369 405.431805,31.1448601 C403.713321,39.7329832 402.307289,46.960768 402.307289,47.2066246 C402.307289,47.639108 402.55195,47.653626 409.83654,47.653626 C415.993828,47.653626 417.387941,47.7113583 417.487324,47.9704748 C417.554134,48.1447371 417.038851,51.192474 416.3422,54.7432235 C415.645525,58.293973 414.845094,62.4494769 414.563471,63.9776869 C414.281824,65.5058968 413.949029,66.8851295 413.823955,67.0426277 C413.653149,67.2576885 411.6573,67.3441945 405.811029,67.3899482 L398.025544,67.4509222 L393.467546,88.6374693 C386.440764,121.299322 386.383319,121.716616 388.563375,124.264605 C390.277461,126.268019 393.194487,126.823222 399.711788,126.386501 C402.166755,126.22201 404.219146,126.131221 404.272679,126.184778 C404.43446,126.346606 400.580982,145.10235 400.335974,145.345706 C400.210901,145.469954 398.650448,145.79574 396.868316,146.069683 C392.56301,146.731537 383.040503,146.908323 379.394169,146.394127 L379.394169,146.394096 Z M446.281964,146.514501 C441.28033,145.911274 435.917133,144.368662 431.80638,142.350916 C420.826274,136.961359 412.845496,126.569022 410.09613,114.08056 C409.097071,109.542633 408.902379,107.418074 408.920849,101.256748 C408.935198,96.5008428 409.029582,94.8750358 409.450419,92.1440783 C411.377529,79.6380647 416.389947,69.0640559 424.339967,60.7336676 C431.11489,53.6345766 439.315542,48.9933335 448.827866,46.8744473 C457.752248,44.886524 467.65884,44.9289434 474.865502,46.9859835 C484.553308,49.7512099 492.042843,55.9040379 496.39423,64.6723278 C498.919533,69.7609891 500.339661,74.9789462 500.923922,81.3158309 C501.268799,85.0564489 501.068877,93.9883962 500.557891,97.66777 C500.181792,100.37599 499.560846,103.657149 499.364164,103.975526 C499.304528,104.072081 484.626121,104.151085 466.745509,104.151085 L434.235333,104.151085 L433.979771,104.787839 C433.630635,105.657692 434.075265,111.080707 434.696442,113.528737 C435.305376,115.928559 437.145299,119.623261 438.651108,121.469987 C442.221064,125.848147 447.15625,128.226528 452.679006,128.230348 C460.485274,128.235751 466.945941,124.519206 471.329799,117.501365 C471.874183,116.629915 472.527901,115.671612 472.782491,115.371851 L473.245382,114.826812 L484.558492,116.774238 C490.780701,117.845305 495.928769,118.778856 495.998666,118.848783 C496.293481,119.143705 493.095389,124.711761 490.685553,128.0992 C488.993408,130.477813 485.183951,134.543777 482.907591,136.400923 C476.802772,141.381429 469.236281,144.740805 460.859823,146.189663 C458.286841,146.634697 448.99527,146.841746 446.281964,146.514501 L446.281964,146.514501 Z M477.425893,87.1163601 C477.768617,84.8299497 477.069189,78.9226772 476.098135,75.9023555 C475.044086,72.623882 473.712162,70.4746631 471.35792,68.2534331 C466.217859,63.403844 457.894981,62.5304026 450.79925,66.0959016 C446.327744,68.3427871 442.307648,72.6089936 439.929914,77.6306915 C438.526058,80.595604 436.792692,86.0906302 436.792692,87.5761661 L436.792692,88.1743445 L457.029999,88.1743445 L477.267329,88.1743445 L477.425893,87.1163601 L477.425893,87.1163601 Z M310.540869,144.211604 C310.39323,143.972624 313.394061,129.221091 319.797052,98.7097313 C321.881636,88.7763666 325.115696,73.3032408 326.983833,64.3250073 C328.851993,55.3467738 330.498775,47.924397 330.643382,47.8308289 C330.787989,47.7372607 336.559735,47.6591136 343.469499,47.6571686 C353.635101,47.6540813 356.054958,47.7117365 356.149388,47.9578555 C356.213575,48.1251945 355.330579,52.9442657 354.187191,58.6669026 C352.112142,69.052548 336.685803,143.26717 336.442484,144.035049 C336.322225,144.414532 335.500593,144.440257 323.498099,144.440257 C315.312098,144.440257 310.631109,144.357664 310.540869,144.211604 L310.540869,144.211604 Z M498.447963,144.111275 C498.304119,143.736238 498.810569,141.121216 501.366354,129.042384 C502.363375,124.330403 503.560296,118.547517 504.026197,116.191527 C504.492097,113.835537 506.12402,105.968729 507.652719,98.7097313 C509.181394,91.4507341 512.183962,77.0838933 514.325042,66.7833877 C516.768946,55.0261739 518.33375,47.9818206 518.529067,47.8579662 C519.010868,47.5524863 541.953266,47.5989809 542.260232,47.9060508 C542.44238,48.0882782 542.424651,48.5355112 542.196507,49.5140055 C541.917685,50.7097835 539.09171,64.7553528 539.09171,64.9454297 C539.09171,65.3599914 539.749178,64.6771131 540.970956,62.9935814 C551.262928,48.8117004 562.804822,43.0974918 574.734341,46.277882 C577.281424,46.9569397 579.85496,47.9224211 579.978853,48.2453828 C580.038335,48.400473 579.236167,50.3886278 578.196259,52.6635304 C571.387336,67.5586456 570.491734,69.4189402 570.130933,69.4165089 C569.925965,69.4141935 569.261646,69.263248 568.65468,69.0789829 C568.047714,68.894741 566.477749,68.6231596 565.165845,68.4754558 C558.435174,67.7177646 551.585332,70.553474 545.569735,76.5879352 C541.890351,80.2788632 539.584365,83.8813866 537.374499,89.3909772 C534.568637,96.3865435 532.901303,103.004827 527.997733,126.61111 C526.079835,135.844045 524.408728,143.632706 524.284164,143.919245 L524.057671,144.440226 L511.31594,144.440226 C500.519255,144.440226 498.554929,144.38998 498.448001,144.111244 L498.447963,144.111275 Z M333.437371,34.1529561 C333.259019,33.6879635 337.944127,11.4576721 338.263244,11.2547907 C338.417665,11.1566148 344.197441,11.0746935 351.107205,11.0727485 C361.059392,11.0696612 363.693868,11.1304037 363.783299,11.3635946 C363.883306,11.6242702 360.047442,31.3806443 359.468411,33.587148 L359.240553,34.4554491 L346.396985,34.4554491 C336.039885,34.4554491 333.530944,34.3968677 333.437371,34.1529561 L333.437371,34.1529561 Z" id="path8073" fill-opacity="0.30588236" fill="#000000" sketch:type="MSShapeGroup"></path>
                <path d="M551.312573,251.271356 C551.204465,250.989494 552.292699,245.29976 552.762603,243.690022 C552.874808,243.305677 555.525555,243.284815 604.232576,243.284815 C632.475982,243.284815 655.634341,243.365903 655.695582,243.465028 C655.854354,243.722068 654.243469,250.969395 653.948514,251.324936 C653.750999,251.563036 643.762151,251.620506 602.574916,251.620506 C557.221705,251.620506 551.431374,251.581065 551.312573,251.271356 L551.312573,251.271356 Z M556.48418,227.365961 C556.285553,227.006554 558.072522,219.640628 558.410155,219.427003 C558.848027,219.150003 660.235064,219.134258 660.671918,219.411026 C660.932433,219.576166 660.858579,220.212897 660.249229,223.054348 C659.843111,224.948125 659.455417,226.732009 659.387672,227.018548 L659.26452,227.539529 L607.922329,227.539529 C579.68413,227.539529 556.536949,227.461382 556.48418,227.365869 L556.48418,227.365961 Z M561.992633,202.765439 C561.854946,202.542552 563.126045,196.234287 563.520892,195.180933 L563.716185,194.659953 L614.857737,194.659953 C648.502945,194.659953 666.047961,194.738702 666.141511,194.890157 C666.288711,195.128418 665.008562,201.553221 664.63031,202.474663 L664.416431,202.995643 L613.275644,202.995643 C579.630944,202.995643 562.086183,202.916894 561.992633,202.765439 L561.992633,202.765439 Z M567.204673,177.236044 C567.215783,176.145828 568.77399,169.823878 569.079175,169.63049 C569.258221,169.517055 591.707107,169.426868 620.265511,169.424876 C664.558076,169.421789 671.149648,169.464857 671.262108,169.758049 C671.415718,170.15851 669.988508,177.049834 669.665433,177.467591 C669.487591,177.697586 658.943737,177.757024 618.320488,177.757024 L567.199327,177.757024 L567.204727,177.236044 L567.204673,177.236044 Z M573.032081,153.246474 C572.792929,153.094718 572.911151,152.255684 573.610695,149.140058 L574.489865,145.224676 L625.697216,145.166249 C674.357832,145.110755 676.904706,145.128044 676.907484,145.513569 C676.915199,146.58679 675.416881,152.892925 675.091862,153.155129 C674.807253,153.384731 664.251665,153.443821 624.032867,153.44102 C596.147739,153.438704 573.19738,153.351642 573.032081,153.246729 L573.032081,153.246474 Z M578.073917,129.306332 C578.066973,128.692176 579.560145,122.054952 579.76715,121.780546 C579.940688,121.550527 590.457347,121.491112 630.990934,121.491112 L681.996372,121.491112 L681.990971,122.012093 C681.987886,122.298632 681.64378,124.096016 681.225789,126.006278 L680.465814,129.479482 L629.271424,129.537909 C588.392127,129.584528 578.076385,129.537886 578.073701,129.306362 L578.073917,129.306332 Z M583.667449,105.078145 C583.413113,104.916896 583.510807,104.186041 584.1982,101.107115 C584.661531,99.031736 585.094358,97.2467173 585.160019,97.1404372 C585.34911,96.8343322 687.027862,96.8937703 687.217115,97.2000992 C687.439094,97.5594601 685.906785,104.579316 685.5224,104.963869 C685.253483,105.232926 677.277936,105.282315 634.591349,105.279328 C606.754639,105.277013 583.838881,105.186849 583.667449,105.07816 L583.667449,105.078145 Z M588.803066,81.3063683 C588.641679,80.8856243 590.064977,74.0439673 590.402309,73.6188934 C590.584827,73.3889209 601.06508,73.3294597 641.413256,73.3294597 C685.628148,73.3294597 692.211203,73.3729905 692.323662,73.6661752 C692.477273,74.0666357 691.050063,80.9579596 690.726988,81.3757166 C690.549145,81.6057122 680.073267,81.6651503 639.721943,81.6651503 C594.074889,81.6651503 588.926774,81.6288746 588.803066,81.3063683 L588.803066,81.3063683 Z M594.089563,58.0785495 C593.849577,57.9263073 594.037642,57.1530794 594.975536,54.4352275 C595.630366,52.5376769 596.316648,50.7507132 596.500578,50.4641739 L596.83504,49.9431932 L803.33708,49.9470523 C919.821287,49.9493678 1009.97755,50.038305 1010.15661,50.1517862 C1010.41413,50.3150268 1010.24548,51.0458584 1009.26207,54.0266551 C1008.59551,56.0471802 1007.88597,57.8305781 1007.68531,57.9897666 C1007.39407,58.2208273 965.683246,58.2784825 800.857371,58.2756577 C687.302611,58.2733422 594.257106,58.185146 594.089563,58.0788659 L594.089563,58.0785495 Z M601.607311,34.4880509 C601.549604,34.3924683 602.101193,32.5950155 602.833024,30.4937268 L604.163605,26.6732019 L810.87812,26.6151608 L1017.59257,26.5571197 L1017.57637,27.0782162 C1017.56788,27.364825 1017.02067,29.1622778 1016.36128,31.0725402 L1015.16239,34.5457447 L808.437371,34.6037858 C694.73852,34.6356621 601.665033,34.5836412 601.607334,34.4880123 L601.607311,34.4880509 Z M607.702316,9.65221556 C607.702316,9.22950342 608.93782,3.38067344 609.230436,2.41808641 C609.34727,2.03378791 611.978784,2.01287922 660.25608,2.01287922 C699.816831,2.01287922 711.158524,2.07508817 711.158524,2.29196277 C711.158524,2.92751288 709.671949,9.56105552 709.46982,9.82758923 C709.295387,10.0575848 698.824114,10.1170229 658.476309,10.1170229 C607.794617,10.1170229 607.702316,10.1170229 607.702316,9.65221556 L607.702316,9.65221556 Z" id="path8074" fill="#DA0431" sketch:type="MSShapeGroup"></path>
                <path d="M422.87956,236.481641 C416.028421,235.357943 411.321951,231.904027 408.328271,225.803019 C404.064602,217.113779 403.587893,205.428322 406.937745,191.718588 C410.236193,178.219285 417.157506,167.905928 426.741069,162.209942 C434.592747,157.543299 444.577752,156.580063 451.455947,159.825773 C457.82341,162.830442 461.437827,168.371338 462.715338,177.086372 C463.031979,179.246404 463.042718,179.714244 462.781686,179.973021 C462.483653,180.268498 455.69681,182.152874 454.922069,182.155259 C454.635377,182.155259 454.481883,181.740141 454.260343,180.361928 C453.114641,173.233986 450.176739,168.861685 445.324504,167.06319 C444.138345,166.623552 443.473077,166.554041 440.3671,166.545242 C436.180873,166.533434 434.475373,166.908215 430.993551,168.605316 C423.80184,172.110659 418.243071,180.36158 415.39011,191.765616 C413.306335,200.095031 412.710108,209.897966 413.957554,215.319337 C415.379648,221.499719 418.785996,225.734713 423.730601,227.46974 C425.94704,228.247484 430.131184,228.462313 432.643851,227.927416 C440.092466,226.34169 446.400448,220.147623 449.98332,210.90105 C450.346435,209.963956 450.766879,209.149884 450.917666,209.091997 C451.166771,208.996368 454.531481,209.885856 457.339334,210.789607 C458.374961,211.122942 458.446778,211.194721 458.311521,211.761409 C458.001731,213.059485 454.465149,219.904476 452.850954,222.330255 C450.783821,225.436712 446.440928,229.906355 443.732852,231.714506 C440.339697,233.980054 436.953739,235.43271 433.192285,236.236687 C430.844824,236.738426 425.254717,236.871219 422.879552,236.481641 L422.87956,236.481641 Z M342.12331,235.420114 C341.964562,235.163166 378.92678,159.676749 379.340119,159.413735 C379.490003,159.318384 381.463517,159.238755 383.725736,159.23681 C387.776105,159.232951 387.84209,159.241441 388.049326,159.754248 C388.327663,160.443308 390.405999,173.149448 395.463109,205.079566 C397.752408,219.533885 399.76374,232.200361 399.932741,233.227318 C400.101743,234.254252 400.198835,235.218066 400.148495,235.369127 C400.031407,235.720569 391.170394,235.763382 390.95427,235.413507 C390.794503,235.154869 388.993416,222.919326 388.278481,217.235751 C388.022178,215.198137 387.762125,213.296558 387.700584,213.010019 L387.58868,212.489038 L374.54475,212.489038 C364.390535,212.489038 361.448212,212.553176 361.26338,212.778472 C361.132798,212.93766 358.712617,218.017222 355.885185,224.066386 C353.057752,230.11555 350.639492,235.195112 350.511248,235.3543 C350.223862,235.710999 342.341216,235.772822 342.12331,235.42006 L342.12331,235.420114 Z M386.44027,203.745091 C386.44027,203.520537 385.717928,198.024191 384.835078,191.530989 C383.384331,180.861259 382.833629,176.213486 382.327319,170.366277 C382.234231,169.291297 382.043543,168.37877 381.902176,168.331928 C381.76023,168.284924 381.363857,169.051599 381.014073,170.049775 C379.578994,174.145031 377.502001,178.754552 371.605136,190.931329 C368.188697,197.986148 365.448334,203.84718 365.515453,203.955845 C365.582573,204.064487 370.318113,204.153378 376.038871,204.153378 C385.820482,204.153378 386.44027,204.129066 386.44027,203.745091 L386.44027,203.745091 Z M459.892511,235.403605 C459.658844,235.169835 460.500681,229.760921 461.993829,221.902634 C462.725452,218.052077 466.262405,198.020394 467.212836,192.344483 C467.607335,189.988493 468.544829,184.67449 469.296148,180.535588 C470.047467,176.396686 471.195692,169.990268 471.847767,166.299085 C472.499842,162.607925 473.156268,159.509688 473.306453,159.414105 C473.729351,159.145048 517.847799,159.190732 518.014394,159.460415 C518.15134,159.682075 516.839992,167.68964 516.604265,168.071206 C516.53892,168.177023 508.213573,168.263599 498.103541,168.263599 L479.721687,168.263599 L479.60814,168.784579 C479.265577,170.35639 475.778293,190.713049 475.778293,191.140948 L475.778293,191.649842 L492.796816,191.649842 C507.575963,191.649842 509.832559,191.694762 509.946222,191.991073 C510.078331,192.335499 508.786262,200.030337 508.525423,200.452563 C508.435344,200.598368 502.238479,200.680174 491.285152,200.680174 C481.458826,200.680174 474.130978,200.768416 474.057332,200.88764 C473.816745,201.277055 469.517526,226.175578 469.652991,226.394853 C469.735872,226.529035 477.061335,226.613433 488.623527,226.613433 C500.687122,226.613433 507.509469,226.6951 507.599339,226.840581 C507.736286,227.062241 506.424938,235.069806 506.18921,235.451373 C506.008174,235.744419 460.185915,235.697137 459.892511,235.403597 L459.892511,235.403605 Z M192.567872,170.451208 C192.375217,169.948913 219.844252,37.9009219 220.220953,37.5184989 C220.468785,37.2669 222.751418,37.2086891 232.256127,37.2115603 C238.707258,37.2138758 244.113875,37.2967001 244.270818,37.3964505 C244.490599,37.5360965 244.371867,38.5063709 243.754162,41.61864 C242.866105,46.0929377 242.824051,46.4698961 243.212788,46.4698961 C243.360658,46.4698961 244.271975,45.8592373 245.237937,45.1128689 C249.758626,41.6199366 255.088496,38.5921591 259.282129,37.1346867 C268.439554,33.9520737 278.966304,34.2828617 286.822843,38.0000935 C289.716284,39.3690686 292.205111,41.1016882 294.61041,43.4214183 C300.749622,49.3422362 303.952298,56.5904666 305.472271,68.0037637 C305.867048,70.9679353 305.869941,81.9556723 305.4769,85.2540125 C304.200292,95.9656297 300.92036,105.418951 295.749632,113.289626 C286.777387,126.946914 275.82429,134.470987 262.55521,136.092093 C259.284073,136.491743 252.963616,136.263785 249.817992,135.632681 C241.956408,134.055476 235.47792,130.012781 230.651375,123.6724 C229.738114,122.472686 228.909978,121.491112 228.811035,121.491112 C228.712092,121.491112 228.57054,121.777652 228.496454,122.127866 C228.422392,122.478081 226.131288,133.46693 223.405182,146.54755 C220.679077,159.628171 218.381886,170.438519 218.300301,170.570547 C218.200849,170.731565 213.962315,170.810615 205.428891,170.810615 C194.142906,170.810615 192.690215,170.770017 192.567919,170.451208 L192.567872,170.451208 Z M258.17723,116.163657 C264.904708,114.550145 270.503008,109.501217 274.350144,101.577749 C276.581581,96.9819588 278.576526,90.8086852 279.662701,85.138239 C280.483338,80.853995 280.68826,73.8253406 280.095851,70.2809355 C279.271234,65.3472023 277.390368,61.4410281 274.428141,58.5103382 C271.710714,55.8218233 269.009952,54.4211031 265.293397,53.7727021 C262.728239,53.3251913 261.353729,53.3242188 258.809077,53.7680712 C248.856821,55.5043492 241.668582,64.1887496 237.730673,79.2336988 C236.453139,84.1145467 235.973422,87.197965 235.833791,91.4256421 C235.532819,100.538173 237.568476,106.803509 242.39428,111.617394 C245.078101,114.294563 247.69427,115.707995 251.39173,116.478375 C252.750154,116.761395 256.388341,116.59262 258.17723,116.163564 L258.17723,116.163657 Z M30.245406,135.960366 C20.4258844,134.746273 13.4002049,131.633726 8.25325702,126.217264 C3.39015331,121.099497 0.851157436,114.990964 0.152615102,106.728048 C-0.115690588,103.554327 0.170737297,97.0727947 0.598196593,96.6451506 C0.796807053,96.446437 23.0802034,93.955038 24.7644798,93.9432291 L25.6483013,93.9370545 L25.4588167,95.8473169 C25.1795775,98.6622797 25.2454007,102.671376 25.5947216,104.125121 C26.3859649,107.417973 28.6590004,110.38145 31.4298523,111.732689 C34.0620529,113.016293 35.4526787,113.26296 40.0818464,113.267313 C45.0538468,113.271944 46.8463394,112.932519 49.8846423,111.410885 C54.7535954,108.972418 56.5245327,105.71997 59.6168395,93.5371266 C61.1491409,87.5003036 61.0906392,87.7734364 70.7393617,41.6074408 C75.330688,19.6394227 79.1876218,1.43114835 79.3103189,1.14460898 L79.5334094,0.623628314 L92.6223169,0.623628314 C103.768184,0.623628314 105.730103,0.672870635 105.838419,0.955249875 C105.908393,1.13766257 105.183559,5.22736081 104.227704,10.0434682 C101.373393,24.4250585 88.65773,85.1844635 87.640943,89.3001876 C84.5291793,101.895902 80.682375,112.06864 76.486165,118.798599 C70.4672279,128.451862 61.9926292,133.627006 48.881958,135.655519 C44.8653112,136.276968 34.2150925,136.451207 30.245406,135.960397 L30.245406,135.960366 Z M121.782163,136.168596 C116.193259,135.353783 112.252874,133.402791 108.68176,129.682271 C104.383135,125.203783 102.226664,119.179486 102.227003,111.650366 C102.22715,108.302776 102.674966,104.860367 103.948357,98.4181288 C105.592038,90.1025364 117.50686,37.5786085 117.790396,37.398465 C118.245935,37.1090776 143.05181,37.1614998 143.34266,37.4524926 C143.514161,37.6240689 143.493216,38.0900109 143.272378,39.0154346 C143.099341,39.7405934 142.276483,43.5046208 141.443795,47.3799529 C140.611115,51.255285 137.65253,64.540292 134.869173,76.9021907 C129.50714,100.716958 128.962726,103.249711 128.628564,105.935378 C128.039875,110.66667 130.137752,114.833195 134.093475,116.789073 C135.64153,117.554497 136.076748,117.661981 137.962482,117.744482 C140.61279,117.860464 142.325287,117.459586 145.188918,116.052915 C147.841069,114.750116 150.864906,112.425107 153.316332,109.80381 C158.179013,104.604192 161.118026,98.4703735 163.747974,88.0325838 C164.261382,85.9949705 167.043868,73.8561209 169.931268,61.0573625 C172.818669,48.2586042 175.286597,37.6566476 175.415512,37.497459 C175.714169,37.1287437 200.93957,37.0697918 201.166595,37.4372568 C201.295094,37.6452786 200.583375,41.0533952 197.442866,55.2686653 C196.866104,57.8793573 192.62507,76.6346613 188.018353,96.9471187 L179.642497,133.878859 L167.434271,133.938753 C155.292562,133.998338 155.226045,133.996099 155.226045,133.527711 C155.226045,133.268679 155.798873,130.589959 156.498996,127.575009 C157.199119,124.560082 157.771947,122.061991 157.771947,122.02374 C157.771947,121.680749 157.006062,122.184619 155.772071,123.339459 C148.836733,129.829975 141.219725,133.9918 133.238707,135.65139 C131.108836,136.09427 123.598209,136.433301 121.782147,136.16855 L121.782163,136.168596 Z M374.17365,135.948488 C370.515698,135.432647 367.614411,134.591067 364.915824,133.263006 C362.801267,132.222365 362.213488,131.793771 360.390182,129.96286 C358.617887,128.18319 358.130092,127.519391 357.227315,125.658958 C355.772864,122.661582 355.401903,121.062959 355.26616,117.207493 C355.089151,112.180285 355.943578,107.234951 361.086833,83.5174103 C365.406257,63.5989301 366.729085,57.2639672 366.610862,57.0631697 C366.554621,56.9676566 363.702701,56.8895095 360.273255,56.8895095 L354.037878,56.8895095 L354.037878,56.3053165 C354.037878,55.9840219 354.758021,52.3111082 355.638209,48.1432861 C356.518374,43.975487 357.362873,39.9402718 357.51484,39.1761668 C357.66683,38.4120618 357.896795,37.6566399 358.025872,37.4974513 C358.203067,37.2789405 359.781457,37.2080176 364.467606,37.2080176 C367.881476,37.2080176 370.724948,37.1265826 370.786443,37.0270405 C370.84793,36.9274985 371.588402,33.5671732 372.431906,29.559651 C373.275433,25.5521287 374.03844,22.2067382 374.127477,22.1254652 C374.419376,21.8590473 402.540023,4.81584783 402.942947,4.66117446 C403.182262,4.56929662 403.335803,4.62250611 403.335803,4.79741669 C403.335803,4.95530856 401.92977,12.1111285 400.211286,20.6992517 C398.492802,29.2873749 397.08677,36.5151596 397.08677,36.7610162 C397.08677,37.1934996 397.331431,37.2080176 404.616021,37.2080176 C410.773309,37.2080176 412.167422,37.26575 412.266804,37.5248665 C412.333615,37.6991287 411.818332,40.7468656 411.121681,44.2976152 C410.425006,47.8483647 409.624575,52.0038686 409.342952,53.5320785 C409.061305,55.0602885 408.72851,56.4395211 408.603436,56.5970194 C408.432629,56.8120802 406.436781,56.8985861 400.59051,56.9443398 L392.805025,57.005283 L388.247027,78.1918301 C381.220245,110.853683 381.1628,111.270977 383.342856,113.818966 C385.056942,115.822379 387.973968,116.377583 394.491269,115.940862 C396.946236,115.776371 398.998627,115.685582 399.05216,115.739138 C399.213941,115.900967 395.360463,134.65671 395.115455,134.900066 C394.990382,135.024314 393.429929,135.350101 391.647797,135.624044 C387.342491,136.285898 377.819984,136.462684 374.17365,135.948488 L374.17365,135.948488 Z M441.061445,136.068892 C436.059811,135.465666 430.696614,133.923054 426.585861,131.905307 C415.605755,126.515751 407.624977,116.123414 404.875611,103.634951 C403.876552,99.0970245 403.68186,96.9724654 403.70033,90.8111396 C403.714679,86.0552344 403.809063,84.4294274 404.2299,81.6984699 C406.15701,69.1924564 411.169428,58.6184475 419.119447,50.2880593 C425.894371,43.1889683 434.095023,38.5477252 443.607347,36.4288389 C452.531729,34.4409156 462.438321,34.483335 469.644983,36.5403751 C479.332789,39.3056016 486.822324,45.4584295 491.173711,54.2267194 C493.699014,59.3153807 495.119142,64.5333378 495.703403,70.8702225 C496.04828,74.6108405 495.848357,83.5427878 495.337372,87.2221617 C494.961273,89.9303813 494.340327,93.2115407 494.143644,93.5299177 C494.084009,93.6264728 479.405602,93.7054766 461.52499,93.7054766 L429.014814,93.7054766 L428.759252,94.3422308 C428.410116,95.2120833 428.854746,100.635098 429.475923,103.083129 C430.084857,105.482951 431.92478,109.177653 433.430589,111.024379 C437.000545,115.402539 441.93573,117.780919 447.458487,117.78474 C455.264755,117.790143 461.725422,114.073598 466.10928,107.055757 C466.653664,106.184307 467.307382,105.226003 467.561972,104.926242 L468.024863,104.381204 L479.337973,106.32863 C485.560181,107.399697 490.70825,108.333248 490.778147,108.403175 C491.072962,108.698096 487.874869,114.266152 485.465034,117.653592 C483.772889,120.032204 479.963432,124.098169 477.687071,125.955315 C471.582253,130.93582 464.015762,134.295196 455.639304,135.744055 C453.066322,136.189088 443.774751,136.396138 441.061445,136.068892 L441.061445,136.068892 Z M472.205374,76.6707518 C472.548098,74.3843413 471.84867,68.4770689 470.877616,65.4567471 C469.823566,62.1782737 468.491643,60.0290548 466.137401,57.8078247 C460.99734,52.9582357 452.674462,52.0847942 445.578731,55.6502933 C441.107224,57.8971787 437.087129,62.1633852 434.709395,67.1850831 C433.305539,70.1499957 431.572173,75.6450219 431.572173,77.1305578 L431.572173,77.7287362 L451.80948,77.7287362 L472.04681,77.7287362 L472.205374,76.6707518 L472.205374,76.6707518 Z M305.32035,133.765996 C305.172711,133.527016 308.173542,118.775483 314.576533,88.264123 C316.661117,78.3307583 319.895177,62.8576325 321.763314,53.879399 C323.631474,44.9011655 325.278256,37.4787886 325.422863,37.3852205 C325.56747,37.2916524 331.339216,37.2135053 338.248979,37.2115603 C348.414582,37.208473 350.834439,37.2661282 350.928869,37.5122472 C350.993056,37.6795862 350.11006,42.4986573 348.966672,48.2212942 C346.891623,58.6069396 331.465284,132.821562 331.221965,133.589441 C331.101706,133.968923 330.280074,133.994648 318.27758,133.994648 C310.091579,133.994648 305.41059,133.912055 305.32035,133.765996 L305.32035,133.765996 Z M493.227444,133.665666 C493.0836,133.29063 493.59005,130.675608 496.145835,118.596775 C497.142856,113.884794 498.339777,108.101909 498.805677,105.745919 C499.271578,103.389928 500.903501,95.5231203 502.432199,88.264123 C503.960875,81.0051257 506.963442,66.638285 509.104523,56.3377794 C511.548427,44.5805655 513.113231,37.5362123 513.308548,37.4123578 C513.790349,37.1068779 536.732746,37.1533725 537.039713,37.4604424 C537.221861,37.6426699 537.204132,38.0899028 536.975988,39.0683971 C536.697166,40.2641751 533.871191,54.3097444 533.871191,54.4998213 C533.871191,54.914383 534.528659,54.2315047 535.750437,52.5479731 C546.042409,38.366092 557.584303,32.6518835 569.513822,35.8322736 C572.060904,36.5113314 574.634441,37.4768128 574.758334,37.7997745 C574.817816,37.9548646 574.015648,39.9430195 572.97574,42.2179221 C566.166817,57.1130372 565.271215,58.9733318 564.910414,58.9709006 C564.705446,58.9685851 564.041127,58.8176396 563.434161,58.6333746 C562.827195,58.4491327 561.25723,58.1775512 559.945326,58.0298474 C553.214655,57.2721563 546.364813,60.1078656 540.349216,66.1423268 C536.669832,69.8332549 534.363846,73.4357783 532.15398,78.9453688 C529.348118,85.9409351 527.680783,92.5592188 522.777214,116.165501 C520.859316,125.398436 519.188209,133.187097 519.063645,133.473637 L518.837152,133.994617 L506.095421,133.994617 C495.298736,133.994617 493.33441,133.944372 493.227482,133.665635 L493.227444,133.665666 Z M328.216852,23.7073478 C328.0385,23.2423552 332.723608,1.01206378 333.042725,0.809182332 C333.197146,0.71100642 338.976922,0.629085104 345.886686,0.62714011 C355.838872,0.624052817 358.473349,0.684795304 358.56278,0.91798625 C358.662787,1.17866182 354.826923,20.935036 354.247892,23.1415396 L354.020034,24.0098407 L341.176466,24.0098407 C330.819366,24.0098407 328.310425,23.9512593 328.216852,23.7073478 L328.216852,23.7073478 Z" id="path8072" fill="#030303" sketch:type="MSShapeGroup"></path>
            </g>
        </g>
    </g>
</svg>